<?xml version="1.0" encoding="UTF-8" standalone="no"?>
<!-- Created with Inkscape (http://www.inkscape.org/) -->

<svg
   width="20"
   height="20"
   viewBox="0 0 5.2916665 5.2916668"
   version="1.1"
   id="svg5"
   inkscape:version="1.1.2 (b8e25be833, 2022-02-05)"
   sodipodi:docname="logo-2.svg"
   inkscape:export-filename="D:\AppProjects\Tauri\youtile\src\assets\logo-3.png"
   inkscape:export-xdpi="4915.2002"
   inkscape:export-ydpi="4915.2002"
   xmlns:inkscape="http://www.inkscape.org/namespaces/inkscape"
   xmlns:sodipodi="http://sodipodi.sourceforge.net/DTD/sodipodi-0.dtd"
   xmlns="http://www.w3.org/2000/svg"
   xmlns:svg="http://www.w3.org/2000/svg">
  <sodipodi:namedview
     id="namedview7"
     pagecolor="#191919"
     bordercolor="#eeeeee"
     borderopacity="1"
     inkscape:pageshadow="0"
     inkscape:pageopacity="0"
     inkscape:pagecheckerboard="false"
     inkscape:document-units="mm"
     showgrid="false"
     units="px"
     inkscape:snap-grids="true"
     inkscape:zoom="22.627417"
     inkscape:cx="4.9055533"
     inkscape:cy="8.9272231"
     inkscape:window-width="3840"
     inkscape:window-height="2054"
     inkscape:window-x="-11"
     inkscape:window-y="-11"
     inkscape:window-maximized="1"
     inkscape:current-layer="g1102"
     showguides="false">
    <inkscape:grid
       type="xygrid"
       id="grid9"
       dotted="true" />
  </sodipodi:namedview>
  <defs
     id="defs2">
    <inkscape:path-effect
       effect="vonkoch"
       id="path-effect73657"
       is_visible="true"
       lpeversion="1"
       ref_path="M 1.3339844,9.5609921 H 18.67969"
       generator="m 1.3339844,14.699219 h 5.7819019 m 5.7819017,0 h 5.781902"
       similar_only="false"
       nbgenerations="0"
       drawall="true"
       maxComplexity="1000" />
    <inkscape:path-effect
       effect="fillet_chamfer"
       id="path-effect39563"
       is_visible="true"
       lpeversion="1"
       satellites_param="F,0,0,1,0,0.52916667,0,1 @ F,0,0,1,0,0.52916667,0,1 @ F,0,0,1,0,0.52916667,0,1 @ F,0,0,1,0,0.52916667,0,1 @ F,0,0,1,0,0.52916667,0,1 @ F,0,0,1,0,0.52916667,0,1"
       unit="px"
       method="arc"
       mode="F"
       radius="2"
       chamfer_steps="1"
       flexible="false"
       use_knot_distance="true"
       apply_no_radius="true"
       apply_with_radius="true"
       only_selected="false"
       hide_knots="false" />
    <inkscape:path-effect
       effect="fillet_chamfer"
       id="path-effect39559"
       is_visible="true"
       lpeversion="1"
       satellites_param="F,0,0,1,0,0.52916667,0,1 @ F,0,0,1,0,0.52916667,0,1 @ F,0,0,1,0,0.52916667,0,1 @ F,0,0,1,0,0.52916667,0,1 @ F,0,0,1,0,0.52916667,0,1 @ F,0,0,1,0,0.52916667,0,1"
       unit="px"
       method="arc"
       mode="F"
       radius="2"
       chamfer_steps="1"
       flexible="false"
       use_knot_distance="true"
       apply_no_radius="true"
       apply_with_radius="true"
       only_selected="false"
       hide_knots="false" />
    <inkscape:path-effect
       effect="fillet_chamfer"
       id="path-effect39555"
       is_visible="true"
       lpeversion="1"
       satellites_param="F,0,0,1,0,0.52916667,0,1 @ F,0,0,1,0,0.52916667,0,1 @ F,0,0,1,0,0.52916667,0,1 @ F,0,0,1,0,0.52916667,0,1 @ F,0,0,1,0,0.52916667,0,1 @ F,0,0,1,0,0.52916667,0,1"
       unit="px"
       method="arc"
       mode="F"
       radius="2"
       chamfer_steps="1"
       flexible="false"
       use_knot_distance="true"
       apply_no_radius="true"
       apply_with_radius="true"
       only_selected="false"
       hide_knots="false" />
    <inkscape:path-effect
       effect="fillet_chamfer"
       id="path-effect38453"
       is_visible="true"
       lpeversion="1"
       satellites_param="F,0,0,1,0,0.52916667,0,1 @ F,0,0,1,0,0.52916667,0,1 @ F,0,0,1,0,0.52916667,0,1 @ F,0,0,1,0,0.52916667,0,1 @ F,0,0,1,0,0.52916667,0,1 @ F,0,0,1,0,0.52916667,0,1"
       unit="px"
       method="arc"
       mode="F"
       radius="2"
       chamfer_steps="1"
       flexible="false"
       use_knot_distance="true"
       apply_no_radius="true"
       apply_with_radius="true"
       only_selected="false"
       hide_knots="false" />
    <inkscape:path-effect
       effect="fillet_chamfer"
       id="path-effect38447"
       is_visible="true"
       lpeversion="1"
       satellites_param="F,0,0,1,0,0.52916667,0,1 @ F,0,0,1,0,0.52916667,0,1 @ F,0,0,1,0,0.52916667,0,1 @ F,0,0,1,0,0.52916667,0,1 @ F,0,0,1,0,0.52916667,0,1 @ F,0,0,1,0,0.52916667,0,1"
       unit="px"
       method="arc"
       mode="F"
       radius="2"
       chamfer_steps="1"
       flexible="false"
       use_knot_distance="true"
       apply_no_radius="true"
       apply_with_radius="true"
       only_selected="false"
       hide_knots="false" />
    <inkscape:path-effect
       effect="fillet_chamfer"
       id="path-effect38441"
       is_visible="true"
       lpeversion="1"
       satellites_param="F,0,0,1,0,0.52916667,0,1 @ F,0,0,1,0,0.52916667,0,1 @ F,0,0,1,0,0.52916667,0,1 @ F,0,0,1,0,0.52916667,0,1 @ F,0,0,1,0,0.52916667,0,1 @ F,0,0,1,0,0.52916667,0,1"
       unit="px"
       method="arc"
       mode="F"
       radius="2"
       chamfer_steps="1"
       flexible="false"
       use_knot_distance="true"
       apply_no_radius="true"
       apply_with_radius="true"
       only_selected="false"
       hide_knots="false" />
    <inkscape:path-effect
       effect="fillet_chamfer"
       id="path-effect38435"
       is_visible="true"
       lpeversion="1"
       satellites_param="F,0,0,1,0,0.52916667,0,1 @ F,0,0,1,0,0.52916667,0,1 @ F,0,0,1,0,0.52916667,0,1 @ F,0,0,1,0,0.52916667,0,1 @ F,0,0,1,0,0.52916667,0,1 @ F,0,0,1,0,0.52916667,0,1"
       unit="px"
       method="arc"
       mode="F"
       radius="2"
       chamfer_steps="1"
       flexible="false"
       use_knot_distance="true"
       apply_no_radius="true"
       apply_with_radius="true"
       only_selected="false"
       hide_knots="false" />
    <inkscape:path-effect
       effect="fillet_chamfer"
       id="path-effect38433"
       is_visible="true"
       lpeversion="1"
       satellites_param="F,0,0,1,0,0.52916667,0,1 @ F,0,0,1,0,0.52916667,0,1 @ F,0,0,1,0,0.52916667,0,1 @ F,0,0,1,0,0.52916667,0,1 @ F,0,0,1,0,0.52916667,0,1 @ F,0,0,1,0,0.52916667,0,1"
       unit="px"
       method="arc"
       mode="F"
       radius="2"
       chamfer_steps="1"
       flexible="false"
       use_knot_distance="true"
       apply_no_radius="true"
       apply_with_radius="true"
       only_selected="false"
       hide_knots="false" />
    <inkscape:path-effect
       effect="fillet_chamfer"
       id="path-effect38431"
       is_visible="true"
       lpeversion="1"
       satellites_param="F,0,0,1,0,0.52916667,0,1 @ F,0,0,1,0,0.52916667,0,1 @ F,0,0,1,0,0.52916667,0,1 @ F,0,0,1,0,0.52916667,0,1 @ F,0,0,1,0,0.52916667,0,1 @ F,0,0,1,0,0.52916667,0,1"
       unit="px"
       method="arc"
       mode="F"
       radius="2"
       chamfer_steps="1"
       flexible="false"
       use_knot_distance="true"
       apply_no_radius="true"
       apply_with_radius="true"
       only_selected="false"
       hide_knots="false" />
  </defs>
  <g
     inkscape:label="Layer 1"
     inkscape:groupmode="layer"
     id="layer1">
    <g
       id="g1102"
       transform="rotate(90,2.3910315,2.4534811)">
      <path
         id="path9395"
         style="fill:#f5b024;fill-opacity:1;stroke:none;stroke-width:1.02877;stroke-linecap:round;stroke-linejoin:bevel;stroke-opacity:0.168889"
         d="M 6.765625 0.52929688 A 3.5095514 3.5095514 0 0 0 5.0292969 0.99804688 L 3.0664062 2.1289062 A 3.469293 3.469293 0 0 0 1.3300781 5.1269531 L 1.3242188 7.6171875 A 1.15171 1.15171 0 0 0 1.3339844 7.6601562 L 11.542969 4.9238281 L 11.542969 4.6953125 A 3.423391 3.423391 0 0 0 9.8007812 1.7128906 L 8.5058594 0.98242188 A 3.5095514 3.5095514 0 0 0 6.765625 0.52929688 z "
         transform="matrix(0,-0.26458333,0.26458333,0,-0.0624496,4.8445126)" />
      <path
         id="rect24883"
         style="fill:#e52248;fill-opacity:1;stroke:none;stroke-width:1.02877;stroke-linecap:round;stroke-linejoin:bevel;stroke-opacity:0.168889"
         d="M 18.677734 10.056641 L 9.5957031 12.490234 A 1.1546058 1.1546058 0 0 0 10.148438 13.693359 L 12.220703 14.890625 A 3.423811 3.423811 0 0 0 15.673828 14.873047 L 16.955078 14.115234 A 3.5091147 3.5091147 0 0 0 18.677734 11.097656 L 18.677734 10.056641 z M 7.2460938 13.121094 L 1.3535156 14.699219 L 1.3554688 14.865234 A 3.5091204 3.5091204 0 0 0 3.1054688 17.867188 L 5.0664062 19.001953 A 3.4697203 3.4697203 0 0 0 8.5332031 19.007812 L 10.693359 17.767578 A 1.1515682 1.1515682 0 0 0 10.695312 15.771484 L 8.5878906 14.554688 A 3.4639594 3.4639594 0 0 1 7.2460938 13.121094 z "
         transform="matrix(0,-0.26458333,0.26458333,0,-0.0624496,4.8445126)" />
      <path
         id="rect32492"
         style="fill:#f6772e;fill-opacity:1;stroke:none;stroke-width:1.02877;stroke-linecap:round;stroke-linejoin:bevel;stroke-opacity:0.168889"
         d="M 14.269531 4.4238281 A 1.15171 1.15171 0 0 0 13.068359 5.5761719 L 13.068359 8.0078125 A 3.4639594 3.4639594 0 0 1 11.335938 11.007812 L 10.148438 11.693359 A 1.1546058 1.1546058 0 0 0 9.5957031 12.490234 L 18.677734 10.056641 L 18.679688 8.8339844 A 3.4692936 3.4692936 0 0 0 16.953125 5.8300781 L 14.798828 4.5800781 A 1.15171 1.15171 0 0 0 14.269531 4.4238281 z M 11.542969 4.9238281 L 1.3339844 7.6601562 A 1.15171 1.15171 0 0 0 3.0507812 8.6171875 L 5.1582031 7.4003906 A 3.4643862 3.4643862 0 0 1 8.6230469 7.4003906 L 9.8105469 8.0878906 A 1.154748 1.154748 0 0 0 11.542969 7.0878906 L 11.542969 4.9238281 z M 5.6542969 9.0292969 A 1.154748 1.154748 0 0 0 5.1230469 9.1816406 L 3.0507812 10.378906 A 3.4233869 3.4233869 0 0 0 1.3398438 13.378906 L 1.3535156 14.699219 L 7.2460938 13.121094 A 3.4639594 3.4639594 0 0 1 6.8554688 11.554688 L 6.8554688 10.183594 A 1.154748 1.154748 0 0 0 5.6542969 9.0292969 z "
         transform="matrix(0,-0.26458333,0.26458333,0,-0.0624496,4.8445126)" />
      <path
         style="fill:#ffffff;fill-opacity:1;stroke:none;stroke-width:0.264594px;stroke-linecap:butt;stroke-linejoin:miter;stroke-opacity:1"
         d="M 0.50087524,14.616296 0.20168305,14.096902 a 0.92856846,0.92856846 89.734003 0 1 -0.004269,-0.919496 L 0.39065307,12.834625 A 0.90577212,0.90577212 149.70584 0 1 1.1796836,12.373661 h 0.6330106 a 0.30552702,0.30552702 59.998985 0 1 0.2645996,0.458281 l -0.181527,0.31444 a 0.91661878,0.91661878 90.000007 0 0 -1e-7,0.916562 l 0.321857,0.557519 a 0.30472311,0.30472311 120.06635 0 1 -0.2645983,0.457074 l -0.6588522,-0.0015 A 0.91791814,0.91791814 30.093495 0 1 0.50087524,14.616296 Z"
         id="path38437"
         inkscape:path-effect="#path-effect38441"
         inkscape:original-d="M 0.76500791,15.074828 -0.06244962,13.63837 0.65051693,12.373661 H 2.3418609 l -0.7106612,1.231002 0.850991,1.474081 z" />
      <path
         style="fill:#ffffff;fill-opacity:1;stroke:none;stroke-width:0.264594px;stroke-linecap:butt;stroke-linejoin:miter;stroke-opacity:1"
         d="M 4.9650637,14.08703 4.664887,14.605858 a 0.92845752,0.92845752 149.73289 0 1 -0.7941402,0.463447 l -0.3933855,0.004 A 0.90576845,0.90576845 29.707772 0 1 2.6836553,14.620467 L 2.3671175,14.072162 A 0.30552705,0.30552705 120.00102 0 1 2.6317171,13.613881 H 2.9947062 A 0.91650583,0.91650583 149.99898 0 0 3.7884399,13.1556 l 0.321857,-0.557519 a 0.30468611,0.30468611 0.06527526 0 1 0.5280891,6.02e-4 l 0.3281569,0.571434 a 0.91802902,0.91802902 90.092432 0 1 -0.00148,0.916913 z"
         id="path38443"
         inkscape:path-effect="#path-effect38447"
         inkscape:original-d="m 5.230065,13.629 -0.8301793,1.434888 -1.4516633,0.01486 -0.845672,-1.464867 H 3.5238729 L 4.3748639,12.1398 Z" />
      <path
         style="fill:#ffffff;fill-opacity:1;stroke:none;stroke-width:0.264594px;stroke-linecap:butt;stroke-linejoin:miter;stroke-opacity:1"
         d="m 2.2746811,10.485255 0.5993041,5.78e-4 a 0.92847222,0.92847222 29.735533 0 1 0.7984088,0.456061 l 0.2002116,0.338752 a 0.90587456,0.90587456 89.707101 0 1 0.00467,0.913829 l -0.3165302,0.548281 a 0.30549229,0.30549229 2.445998e-4 0 1 -0.5291378,-2e-6 L 2.8500817,12.428313 A 0.9165057,0.9165057 30.001025 0 0 2.0563481,11.970032 H 1.4126993 A 0.30472325,0.30472325 60.064298 0 1 1.1491439,11.512355 l 0.3307596,-0.569934 a 0.91789887,0.91789887 150.09195 0 1 0.7947776,-0.457166 z"
         id="path38449"
         inkscape:path-effect="#path-effect38453"
         inkscape:original-d="m 1.7455147,10.484744 1.6576369,0.0016 0.7386964,1.249852 -0.845672,1.464839 -0.7106612,-1.231003 H 0.88353268 Z" />
    </g>
  </g>
</svg>
